<svg width="110" height="52" viewBox="0 0 110 52" fill="none" xmlns="http://www.w3.org/2000/svg">
<path d="M54.5347 23.8018C53.3145 23.8018 52.3125 23.5141 51.5288 22.9388C50.7451 22.3534 50.3235 21.5201 50.264 20.4388H53.374C53.4038 20.8059 53.5129 21.0737 53.7014 21.2424C53.8899 21.411 54.1329 21.4953 54.4306 21.4953C54.6984 21.4953 54.9167 21.4308 55.0853 21.3019C55.2639 21.163 55.3532 20.9745 55.3532 20.7364C55.3532 20.4289 55.2093 20.1908 54.9216 20.0221C54.6339 19.8535 54.1677 19.665 53.5228 19.4567C52.8383 19.2285 52.2828 19.0103 51.8562 18.8019C51.4395 18.5837 51.0725 18.2712 50.755 17.8644C50.4475 17.4478 50.2937 16.9071 50.2937 16.2424C50.2937 15.5679 50.4624 14.9925 50.7997 14.5163C51.137 14.0302 51.6032 13.6631 52.1985 13.4151C52.7937 13.1671 53.4683 13.0431 54.2222 13.0431C55.4424 13.0431 56.4147 13.3308 57.1388 13.9062C57.873 14.4716 58.2648 15.2702 58.3144 16.302H55.1448C55.1349 15.9845 55.0357 15.7464 54.8472 15.5877C54.6687 15.429 54.4355 15.3496 54.1478 15.3496C53.9296 15.3496 53.751 15.4141 53.6121 15.5431C53.4732 15.672 53.4038 15.8556 53.4038 16.0936C53.4038 16.2921 53.4782 16.4657 53.627 16.6145C53.7857 16.7534 53.9792 16.8774 54.2074 16.9865C54.4355 17.0857 54.7728 17.2147 55.2192 17.3734C55.8839 17.6016 56.4295 17.8297 56.8561 18.0579C57.2926 18.2761 57.6646 18.5886 57.9722 18.9954C58.2896 19.3922 58.4483 19.8981 58.4483 20.5132C58.4483 21.1382 58.2896 21.6987 57.9722 22.1947C57.6646 22.6907 57.2132 23.0826 56.618 23.3703C56.0327 23.658 55.3383 23.8018 54.5347 23.8018ZM62.6668 13.2068V23.6977H59.7502V13.2068H62.6668ZM63.9166 18.4299C63.9166 17.3982 64.1299 16.4805 64.5565 15.677C64.993 14.8635 65.6081 14.2336 66.4017 13.7871C67.1953 13.3308 68.108 13.1026 69.1397 13.1026C70.4492 13.1026 71.5504 13.4548 72.4433 14.1592C73.3361 14.8536 73.9115 15.801 74.1694 17.0014H71.0296C70.8411 16.6045 70.5782 16.302 70.2409 16.0936C69.9135 15.8853 69.5316 15.7811 69.0951 15.7811C68.4205 15.7811 67.8798 16.0242 67.4731 16.5103C67.0763 16.9865 66.8779 17.6264 66.8779 18.4299C66.8779 19.2434 67.0763 19.8932 67.4731 20.3793C67.8798 20.8555 68.4205 21.0936 69.0951 21.0936C69.5316 21.0936 69.9135 20.9894 70.2409 20.7811C70.5782 20.5727 70.8411 20.2702 71.0296 19.8733H74.1694C73.9115 21.0737 73.3361 22.0261 72.4433 22.7304C71.5504 23.4249 70.4492 23.7721 69.1397 23.7721C68.108 23.7721 67.1953 23.5489 66.4017 23.1024C65.6081 22.6461 64.993 22.0162 64.5565 21.2126C64.1299 20.3991 63.9166 19.4716 63.9166 18.4299ZM82.1333 21.9864H78.4131L77.8477 23.6977H74.7822L78.6066 13.2068H81.9696L85.7791 23.6977H82.6988L82.1333 21.9864ZM81.4041 19.7543L80.2732 16.3615L79.1572 19.7543H81.4041ZM94.5773 13.2068V15.5282H91.7798V23.6977H88.8631V15.5282H86.0953V13.2068H94.5773Z" fill="white"/>
<path d="M50.8593 29.7787C50.6793 29.7787 50.5173 29.7478 50.3732 29.6861C50.2292 29.6218 50.116 29.5318 50.0337 29.416C49.9514 29.3003 49.9103 29.1653 49.9103 29.0109H50.381C50.3912 29.1267 50.4363 29.2218 50.516 29.2964C50.5983 29.371 50.7127 29.4083 50.8593 29.4083C51.0111 29.4083 51.1294 29.3723 51.2143 29.3003C51.2991 29.2257 51.3416 29.1305 51.3416 29.0148C51.3416 28.9248 51.3146 28.8515 51.2606 28.7949C51.2091 28.7383 51.1435 28.6946 51.0638 28.6637C50.9867 28.6329 50.8786 28.5994 50.7397 28.5634C50.5649 28.5171 50.4221 28.4708 50.3115 28.4245C50.2035 28.3757 50.1109 28.3011 50.0337 28.2008C49.9566 28.1005 49.918 27.9667 49.918 27.7995C49.918 27.6452 49.9566 27.5102 50.0337 27.3945C50.1109 27.2787 50.2189 27.19 50.3578 27.1283C50.4967 27.0665 50.6574 27.0357 50.8401 27.0357C51.0998 27.0357 51.312 27.1013 51.4766 27.2324C51.6438 27.361 51.7364 27.5385 51.7544 27.7648H51.2683C51.2606 27.6671 51.2143 27.5835 51.1294 27.5141C51.0445 27.4446 50.9326 27.4099 50.7938 27.4099C50.6677 27.4099 50.5649 27.442 50.4851 27.5063C50.4054 27.5706 50.3655 27.6632 50.3655 27.7841C50.3655 27.8664 50.39 27.9346 50.4388 27.9886C50.4903 28.04 50.5546 28.0812 50.6317 28.112C50.7089 28.1429 50.8143 28.1763 50.9481 28.2123C51.1255 28.2612 51.2696 28.3101 51.3802 28.3589C51.4933 28.4078 51.5885 28.4837 51.6657 28.5866C51.7454 28.6869 51.7853 28.8219 51.7853 28.9917C51.7853 29.128 51.748 29.2566 51.6734 29.3774C51.6014 29.4983 51.4946 29.5961 51.3532 29.6707C51.2143 29.7427 51.0497 29.7787 50.8593 29.7787ZM52.69 27.0704V29.7517H52.2502V27.0704H52.69ZM54.0969 29.7787C53.9169 29.7787 53.7548 29.7478 53.6108 29.6861C53.4668 29.6218 53.3536 29.5318 53.2713 29.416C53.189 29.3003 53.1478 29.1653 53.1478 29.0109H53.6185C53.6288 29.1267 53.6738 29.2218 53.7535 29.2964C53.8358 29.371 53.9503 29.4083 54.0969 29.4083C54.2486 29.4083 54.3669 29.3723 54.4518 29.3003C54.5367 29.2257 54.5791 29.1305 54.5791 29.0148C54.5791 28.9248 54.5521 28.8515 54.4981 28.7949C54.4467 28.7383 54.3811 28.6946 54.3014 28.6637C54.2242 28.6329 54.1162 28.5994 53.9773 28.5634C53.8024 28.5171 53.6597 28.4708 53.5491 28.4245C53.441 28.3757 53.3484 28.3011 53.2713 28.2008C53.1941 28.1005 53.1555 27.9667 53.1555 27.7995C53.1555 27.6452 53.1941 27.5102 53.2713 27.3945C53.3484 27.2787 53.4565 27.19 53.5954 27.1283C53.7342 27.0665 53.895 27.0357 54.0776 27.0357C54.3374 27.0357 54.5496 27.1013 54.7142 27.2324C54.8813 27.361 54.9739 27.5385 54.9919 27.7648H54.5058C54.4981 27.6671 54.4518 27.5835 54.3669 27.5141C54.2821 27.4446 54.1702 27.4099 54.0313 27.4099C53.9053 27.4099 53.8024 27.442 53.7227 27.5063C53.6429 27.5706 53.6031 27.6632 53.6031 27.7841C53.6031 27.8664 53.6275 27.9346 53.6764 27.9886C53.7278 28.04 53.7921 28.0812 53.8693 28.112C53.9464 28.1429 54.0519 28.1763 54.1856 28.2123C54.3631 28.2612 54.5071 28.3101 54.6177 28.3589C54.7309 28.4078 54.826 28.4837 54.9032 28.5866C54.9829 28.6869 55.0228 28.8219 55.0228 28.9917C55.0228 29.128 54.9855 29.2566 54.9109 29.3774C54.8389 29.4983 54.7322 29.5961 54.5907 29.6707C54.4518 29.7427 54.2872 29.7787 54.0969 29.7787ZM57.22 27.0704V27.4292H56.5062V29.7517H56.0664V27.4292H55.3489V27.0704H57.22ZM58.0512 27.4253V28.2123H58.9771V28.5711H58.0512V29.3929H59.0928V29.7517H57.6114V27.0665H59.0928V27.4253H58.0512ZM62.4045 27.0704V29.7517H61.9647V27.9153L61.1468 29.7517H60.8421L60.0203 27.9153V29.7517H59.5805V27.0704H60.055L60.9964 29.173L61.9339 27.0704H62.4045ZM64.5451 29.2038H63.4224L63.2295 29.7517H62.7704L63.731 27.0665H64.2403L65.2009 29.7517H64.738L64.5451 29.2038ZM64.4216 28.8451L63.9857 27.5989L63.5459 28.8451H64.4216ZM67.3885 27.0704C67.674 27.0704 67.9235 27.1257 68.1369 27.2363C68.353 27.3443 68.5189 27.5012 68.6346 27.707C68.7529 27.9101 68.8121 28.148 68.8121 28.4207C68.8121 28.6933 68.7529 28.9299 68.6346 29.1305C68.5189 29.3312 68.353 29.4855 68.1369 29.5935C67.9235 29.6989 67.674 29.7517 67.3885 29.7517H66.5128V27.0704H67.3885ZM67.3885 29.3929C67.7023 29.3929 67.9428 29.308 68.1099 29.1383C68.2771 28.9685 68.3607 28.7293 68.3607 28.4207C68.3607 28.1095 68.2771 27.8664 68.1099 27.6915C67.9428 27.5166 67.7023 27.4292 67.3885 27.4292H66.9526V29.3929H67.3885ZM69.6338 27.4253V28.2123H70.5597V28.5711H69.6338V29.3929H70.6754V29.7517H69.194V27.0665H70.6754V27.4253H69.6338ZM72.5511 27.0704V29.7517H72.1113V27.0704H72.5511ZM75.2774 29.7517H74.8376L73.5143 27.7494V29.7517H73.0745V27.0665H73.5143L74.8376 29.065V27.0665H75.2774V29.7517ZM77.3788 27.0704V27.4292H76.2407V28.2201H77.1281V28.5789H76.2407V29.7517H75.8009V27.0704H77.3788ZM78.9554 29.7787C78.7059 29.7787 78.4757 29.7208 78.2648 29.6051C78.0565 29.4868 77.8906 29.3234 77.7671 29.1151C77.6462 28.9042 77.5858 28.6676 77.5858 28.4052C77.5858 28.1429 77.6462 27.9076 77.7671 27.6992C77.8906 27.4909 78.0565 27.3289 78.2648 27.2131C78.4757 27.0948 78.7059 27.0357 78.9554 27.0357C79.2074 27.0357 79.4376 27.0948 79.646 27.2131C79.8569 27.3289 80.0227 27.4909 80.1436 27.6992C80.2645 27.9076 80.325 28.1429 80.325 28.4052C80.325 28.6676 80.2645 28.9042 80.1436 29.1151C80.0227 29.3234 79.8569 29.4868 79.646 29.6051C79.4376 29.7208 79.2074 29.7787 78.9554 29.7787ZM78.9554 29.3967C79.1328 29.3967 79.291 29.3569 79.4299 29.2771C79.5688 29.1948 79.6768 29.0791 79.754 28.9299C79.8337 28.7782 79.8736 28.6033 79.8736 28.4052C79.8736 28.2072 79.8337 28.0336 79.754 27.8844C79.6768 27.7352 79.5688 27.6208 79.4299 27.5411C79.291 27.4613 79.1328 27.4215 78.9554 27.4215C78.7779 27.4215 78.6197 27.4613 78.4808 27.5411C78.342 27.6208 78.2327 27.7352 78.1529 27.8844C78.0758 28.0336 78.0372 28.2072 78.0372 28.4052C78.0372 28.6033 78.0758 28.7782 78.1529 28.9299C78.2327 29.0791 78.342 29.1948 78.4808 29.2771C78.6197 29.3569 78.7779 29.3967 78.9554 29.3967ZM82.0964 29.7517L81.4792 28.6792H81.1435V29.7517H80.7037V27.0704H81.6296C81.8354 27.0704 82.009 27.1064 82.1505 27.1784C82.2945 27.2504 82.4012 27.3469 82.4707 27.4678C82.5427 27.5886 82.5787 27.7237 82.5787 27.8728C82.5787 28.0477 82.5273 28.2072 82.4244 28.3512C82.3241 28.4927 82.1685 28.5891 81.9576 28.6406L82.6211 29.7517H82.0964ZM81.1435 28.3281H81.6296C81.7942 28.3281 81.9177 28.2869 82 28.2046C82.0849 28.1223 82.1273 28.0117 82.1273 27.8728C82.1273 27.734 82.0862 27.6259 82.0039 27.5488C81.9216 27.469 81.7968 27.4292 81.6296 27.4292H81.1435V28.3281ZM85.9113 27.0704V29.7517H85.4715V27.9153L84.6536 29.7517H84.3489L83.5271 27.9153V29.7517H83.0873V27.0704H83.5618L84.5032 29.173L85.4407 27.0704H85.9113ZM88.0519 29.2038H86.9292L86.7363 29.7517H86.2772L87.2378 27.0665H87.7471L88.7077 29.7517H88.2448L88.0519 29.2038ZM87.9284 28.8451L87.4925 27.5989L87.0526 28.8451H87.9284ZM90.2944 29.3929C90.4564 29.3929 90.5991 29.3582 90.7226 29.2887C90.846 29.2193 90.9425 29.1138 91.0119 28.9724H91.5405C91.4479 29.209 91.3039 29.3967 91.1084 29.5356C90.9129 29.6719 90.6866 29.7504 90.4294 29.771V29.9369C90.5786 29.9369 90.6994 29.9716 90.792 30.041C90.8846 30.113 90.9309 30.2133 90.9309 30.3419C90.9309 30.4705 90.8846 30.5721 90.792 30.6467C90.6994 30.7239 90.5824 30.7625 90.441 30.7625H89.9317V30.4847H90.3522C90.4242 30.4847 90.4783 30.4744 90.5143 30.4538C90.5503 30.4332 90.5683 30.3959 90.5683 30.3419C90.5683 30.2879 90.5503 30.2506 90.5143 30.2301C90.4783 30.2095 90.4242 30.1992 90.3522 30.1992H90.14V29.7671C89.9137 29.744 89.7079 29.6719 89.5228 29.5511C89.3376 29.4302 89.191 29.2707 89.083 29.0727C88.9775 28.8721 88.9248 28.6496 88.9248 28.4052C88.9248 28.1429 88.9852 27.9076 89.1061 27.6992C89.2296 27.4909 89.3955 27.3289 89.6038 27.2131C89.8147 27.0948 90.0449 27.0357 90.2944 27.0357C90.5798 27.0357 90.8332 27.1064 91.0544 27.2479C91.2781 27.3867 91.4402 27.5848 91.5405 27.842H91.0119C90.9425 27.7005 90.846 27.5951 90.7226 27.5256C90.5991 27.4562 90.4564 27.4215 90.2944 27.4215C90.1169 27.4215 89.9587 27.4613 89.8198 27.5411C89.6809 27.6208 89.5716 27.7352 89.4919 27.8844C89.4147 28.0336 89.3762 28.2072 89.3762 28.4052C89.3762 28.6033 89.4147 28.7769 89.4919 28.9261C89.5716 29.0752 89.6809 29.191 89.8198 29.2733C89.9587 29.353 90.1169 29.3929 90.2944 29.3929ZM93.6177 29.2038H92.4951L92.3022 29.7517H91.8431L92.8037 27.0665H93.313L94.2736 29.7517H93.8106L93.6177 29.2038ZM93.4943 28.8451L93.0583 27.5989L92.6185 28.8451H93.4943ZM92.4295 26.8466C92.4501 26.6975 92.4989 26.5856 92.5761 26.511C92.6533 26.4338 92.7497 26.3953 92.8654 26.3953C92.9143 26.3953 92.9567 26.403 92.9928 26.4184C93.0288 26.4338 93.0725 26.457 93.1239 26.4878C93.1625 26.5136 93.1947 26.5329 93.2204 26.5457C93.2487 26.5586 93.2795 26.565 93.313 26.565C93.3567 26.565 93.3927 26.5521 93.421 26.5264C93.4519 26.4981 93.4711 26.457 93.4789 26.403H93.7258C93.7052 26.5521 93.6563 26.6653 93.5792 26.7425C93.502 26.8171 93.4056 26.8543 93.2898 26.8543C93.241 26.8543 93.1972 26.8466 93.1586 26.8312C93.1201 26.8132 93.0776 26.7888 93.0313 26.7579C92.985 26.7296 92.949 26.7103 92.9233 26.7C92.9002 26.6872 92.8732 26.6807 92.8423 26.6807C92.7986 26.6807 92.7613 26.6949 92.7304 26.7232C92.7021 26.7515 92.6841 26.7926 92.6764 26.8466H92.4295ZM95.8602 29.7787C95.6108 29.7787 95.3806 29.7208 95.1697 29.6051C94.9613 29.4868 94.7954 29.3234 94.672 29.1151C94.5511 28.9042 94.4907 28.6676 94.4907 28.4052C94.4907 28.1429 94.5511 27.9076 94.672 27.6992C94.7954 27.4909 94.9613 27.3289 95.1697 27.2131C95.3806 27.0948 95.6108 27.0357 95.8602 27.0357C96.1123 27.0357 96.3425 27.0948 96.5508 27.2131C96.7617 27.3289 96.9276 27.4909 97.0485 27.6992C97.1694 27.9076 97.2298 28.1429 97.2298 28.4052C97.2298 28.6676 97.1694 28.9042 97.0485 29.1151C96.9276 29.3234 96.7617 29.4868 96.5508 29.6051C96.3425 29.7208 96.1123 29.7787 95.8602 29.7787ZM95.8602 29.3967C96.0377 29.3967 96.1959 29.3569 96.3348 29.2771C96.4737 29.1948 96.5817 29.0791 96.6588 28.9299C96.7386 28.7782 96.7784 28.6033 96.7784 28.4052C96.7784 28.2072 96.7386 28.0336 96.6588 27.8844C96.5817 27.7352 96.4737 27.6208 96.3348 27.5411C96.1959 27.4613 96.0377 27.4215 95.8602 27.4215C95.6828 27.4215 95.5246 27.4613 95.3857 27.5411C95.2468 27.6208 95.1375 27.7352 95.0578 27.8844C94.9806 28.0336 94.942 28.2072 94.942 28.4052C94.942 28.6033 94.9806 28.7782 95.0578 28.9299C95.1375 29.0791 95.2468 29.1948 95.3857 29.2771C95.5246 29.3569 95.6828 29.3967 95.8602 29.3967ZM49.8293 33.4052C49.8293 33.1429 49.8897 32.9076 50.0106 32.6992C50.134 32.4909 50.2999 32.3289 50.5083 32.2131C50.7192 32.0948 50.9494 32.0357 51.1988 32.0357C51.4843 32.0357 51.7377 32.1064 51.9589 32.2479C52.1826 32.3867 52.3447 32.5848 52.445 32.842H51.9164C51.847 32.7005 51.7505 32.5951 51.6271 32.5256C51.5036 32.4562 51.3609 32.4215 51.1988 32.4215C51.0214 32.4215 50.8632 32.4613 50.7243 32.5411C50.5854 32.6208 50.4761 32.7352 50.3964 32.8844C50.3192 33.0336 50.2806 33.2072 50.2806 33.4052C50.2806 33.6033 50.3192 33.7769 50.3964 33.9261C50.4761 34.0752 50.5854 34.191 50.7243 34.2733C50.8632 34.353 51.0214 34.3929 51.1988 34.3929C51.3609 34.3929 51.5036 34.3582 51.6271 34.2887C51.7505 34.2193 51.847 34.1138 51.9164 33.9724H52.445C52.3447 34.2296 52.1826 34.4276 51.9589 34.5665C51.7377 34.7054 51.4843 34.7748 51.1988 34.7748C50.9468 34.7748 50.7166 34.7169 50.5083 34.6012C50.2999 34.4829 50.134 34.3196 50.0106 34.1113C49.8897 33.9029 49.8293 33.6676 49.8293 33.4052ZM54.1287 34.7787C53.8792 34.7787 53.649 34.7208 53.4381 34.6051C53.2298 34.4868 53.0639 34.3234 52.9405 34.1151C52.8196 33.9042 52.7591 33.6676 52.7591 33.4052C52.7591 33.1429 52.8196 32.9076 52.9405 32.6992C53.0639 32.4909 53.2298 32.3289 53.4381 32.2131C53.649 32.0948 53.8792 32.0357 54.1287 32.0357C54.3808 32.0357 54.611 32.0948 54.8193 32.2131C55.0302 32.3289 55.1961 32.4909 55.317 32.6992C55.4378 32.9076 55.4983 33.1429 55.4983 33.4052C55.4983 33.6676 55.4378 33.9042 55.317 34.1151C55.1961 34.3234 55.0302 34.4868 54.8193 34.6051C54.611 34.7208 54.3808 34.7787 54.1287 34.7787ZM54.1287 34.3967C54.3062 34.3967 54.4644 34.3569 54.6032 34.2771C54.7421 34.1948 54.8502 34.0791 54.9273 33.9299C55.007 33.7782 55.0469 33.6033 55.0469 33.4052C55.0469 33.2072 55.007 33.0336 54.9273 32.8844C54.8502 32.7352 54.7421 32.6208 54.6032 32.5411C54.4644 32.4613 54.3062 32.4215 54.1287 32.4215C53.9513 32.4215 53.7931 32.4613 53.6542 32.5411C53.5153 32.6208 53.406 32.7352 53.3263 32.8844C53.2491 33.0336 53.2105 33.2072 53.2105 33.4052C53.2105 33.6033 53.2491 33.7782 53.3263 33.9299C53.406 34.0791 53.5153 34.1948 53.6542 34.2771C53.7931 34.3569 53.9513 34.3967 54.1287 34.3967ZM58.08 34.7517H57.6401L56.3169 32.7494V34.7517H55.8771V32.0665H56.3169L57.6401 34.065V32.0665H58.08V34.7517ZM60.3357 32.0704V32.4292H59.622V34.7517H59.1822V32.4292H58.4646V32.0704H60.3357ZM62.1198 34.7517L61.5026 33.6792H61.1669V34.7517H60.7271V32.0704H61.653C61.8588 32.0704 62.0324 32.1064 62.1738 32.1784C62.3179 32.2504 62.4246 32.3469 62.4941 32.4678C62.5661 32.5886 62.6021 32.7237 62.6021 32.8728C62.6021 33.0477 62.5506 33.2072 62.4478 33.3512C62.3475 33.4927 62.1919 33.5891 61.981 33.6406L62.6445 34.7517H62.1198ZM61.1669 33.3281H61.653C61.8176 33.3281 61.9411 33.2869 62.0234 33.2046C62.1083 33.1223 62.1507 33.0117 62.1507 32.8728C62.1507 32.734 62.1095 32.6259 62.0272 32.5488C61.9449 32.469 61.8202 32.4292 61.653 32.4292H61.1669V33.3281ZM64.3337 34.7787C64.0842 34.7787 63.854 34.7208 63.6431 34.6051C63.4348 34.4868 63.2689 34.3234 63.1454 34.1151C63.0245 33.9042 62.9641 33.6676 62.9641 33.4052C62.9641 33.1429 63.0245 32.9076 63.1454 32.6992C63.2689 32.4909 63.4348 32.3289 63.6431 32.2131C63.854 32.0948 64.0842 32.0357 64.3337 32.0357C64.5857 32.0357 64.8159 32.0948 65.0242 32.2131C65.2351 32.3289 65.401 32.4909 65.5219 32.6992C65.6428 32.9076 65.7032 33.1429 65.7032 33.4052C65.7032 33.6676 65.6428 33.9042 65.5219 34.1151C65.401 34.3234 65.2351 34.4868 65.0242 34.6051C64.8159 34.7208 64.5857 34.7787 64.3337 34.7787ZM64.3337 34.3967C64.5111 34.3967 64.6693 34.3569 64.8082 34.2771C64.9471 34.1948 65.0551 34.0791 65.1323 33.9299C65.212 33.7782 65.2519 33.6033 65.2519 33.4052C65.2519 33.2072 65.212 33.0336 65.1323 32.8844C65.0551 32.7352 64.9471 32.6208 64.8082 32.5411C64.6693 32.4613 64.5111 32.4215 64.3337 32.4215C64.1562 32.4215 63.998 32.4613 63.8591 32.5411C63.7203 32.6208 63.6109 32.7352 63.5312 32.8844C63.4541 33.0336 63.4155 33.2072 63.4155 33.4052C63.4155 33.6033 63.4541 33.7782 63.5312 33.9299C63.6109 34.0791 63.7203 34.1948 63.8591 34.2771C63.998 34.3569 64.1562 34.3967 64.3337 34.3967ZM66.5218 34.3967H67.4284V34.7517H66.082V32.0704H66.5218V34.3967ZM68.182 32.4253V33.2123H69.1079V33.5711H68.182V34.3929H69.2237V34.7517H67.7422V32.0665H69.2237V32.4253H68.182ZM71.0993 32.4253V33.2123H72.0253V33.5711H71.0993V34.3929H72.141V34.7517H70.6595V32.0665H72.141V32.4253H71.0993ZM75.1933 34.2038H74.0707L73.8778 34.7517H73.4187L74.3793 32.0665H74.8886L75.8492 34.7517H75.3862L75.1933 34.2038ZM75.0699 33.8451L74.6339 32.5989L74.1941 33.8451H75.0699ZM78.1534 32.842C78.084 32.7082 77.9875 32.6079 77.8641 32.5411C77.7406 32.4716 77.5979 32.4369 77.4358 32.4369C77.2584 32.4369 77.1002 32.4768 76.9613 32.5565C76.8224 32.6362 76.7131 32.7494 76.6334 32.896C76.5562 33.0426 76.5176 33.2123 76.5176 33.4052C76.5176 33.5981 76.5562 33.7692 76.6334 33.9184C76.7131 34.065 76.8224 34.1781 76.9613 34.2579C77.1002 34.3376 77.2584 34.3774 77.4358 34.3774C77.675 34.3774 77.8692 34.3106 78.0184 34.1768C78.1676 34.0431 78.2589 33.8618 78.2923 33.6329H77.2854V33.2818H78.763V33.6251C78.7347 33.8335 78.6601 34.0251 78.5392 34.2C78.4209 34.3749 78.2653 34.515 78.0724 34.6205C77.8821 34.7234 77.6699 34.7748 77.4358 34.7748C77.1838 34.7748 76.9536 34.7169 76.7453 34.6012C76.5369 34.4829 76.371 34.3196 76.2476 34.1113C76.1267 33.9029 76.0663 33.6676 76.0663 33.4052C76.0663 33.1429 76.1267 32.9076 76.2476 32.6992C76.371 32.4909 76.5369 32.3289 76.7453 32.2131C76.9562 32.0948 77.1863 32.0357 77.4358 32.0357C77.7213 32.0357 77.9747 32.1064 78.1958 32.2479C78.4196 32.3867 78.5816 32.5848 78.6819 32.842H78.1534ZM79.5825 32.4253V33.2123H80.5084V33.5711H79.5825V34.3929H80.6242V34.7517H79.1427V32.0665H80.6242V32.4253H79.5825ZM83.3148 34.7517H82.875L81.5517 32.7494V34.7517H81.1119V32.0665H81.5517L82.875 34.065V32.0665H83.3148V34.7517ZM84.7141 32.0704C84.9996 32.0704 85.249 32.1257 85.4625 32.2363C85.6786 32.3443 85.8444 32.5012 85.9602 32.707C86.0785 32.9101 86.1377 33.148 86.1377 33.4207C86.1377 33.6933 86.0785 33.9299 85.9602 34.1305C85.8444 34.3312 85.6786 34.4855 85.4625 34.5935C85.249 34.6989 84.9996 34.7517 84.7141 34.7517H83.8383V32.0704H84.7141ZM84.7141 34.3929C85.0278 34.3929 85.2683 34.308 85.4355 34.1383C85.6027 33.9685 85.6863 33.7293 85.6863 33.4207C85.6863 33.1095 85.6027 32.8664 85.4355 32.6915C85.2683 32.5166 85.0278 32.4292 84.7141 32.4292H84.2781V34.3929H84.7141ZM88.136 34.2038H87.0133L86.8204 34.7517H86.3614L87.322 32.0665H87.8312L88.7919 34.7517H88.3289L88.136 34.2038ZM88.0126 33.8451L87.5766 32.5989L87.1368 33.8451H88.0126ZM91.9796 32.0704V34.7517H91.5398V32.9153L90.7219 34.7517H90.4171L89.5953 32.9153V34.7517H89.1555V32.0704H89.6301L90.5714 34.173L91.5089 32.0704H91.9796ZM92.9434 32.4253V33.2123H93.8693V33.5711H92.9434V34.3929H93.9851V34.7517H92.5036V32.0665H93.9851V32.4253H92.9434ZM96.6757 34.7517H96.2359L94.9126 32.7494V34.7517H94.4728V32.0665H94.9126L96.2359 34.065V32.0665H96.6757V34.7517ZM98.9314 32.0704V32.4292H98.2177V34.7517H97.7779V32.4292H97.0603V32.0704H98.9314ZM100.546 34.7787C100.296 34.7787 100.066 34.7208 99.8552 34.6051C99.6469 34.4868 99.481 34.3234 99.3575 34.1151C99.2367 33.9042 99.1762 33.6676 99.1762 33.4052C99.1762 33.1429 99.2367 32.9076 99.3575 32.6992C99.481 32.4909 99.6469 32.3289 99.8552 32.2131C100.066 32.0948 100.296 32.0357 100.546 32.0357C100.798 32.0357 101.028 32.0948 101.236 32.2131C101.447 32.3289 101.613 32.4909 101.734 32.6992C101.855 32.9076 101.915 33.1429 101.915 33.4052C101.915 33.6676 101.855 33.9042 101.734 34.1151C101.613 34.3234 101.447 34.4868 101.236 34.6051C101.028 34.7208 100.798 34.7787 100.546 34.7787ZM100.546 34.3967C100.723 34.3967 100.881 34.3569 101.02 34.2771C101.159 34.1948 101.267 34.0791 101.344 33.9299C101.424 33.7782 101.464 33.6033 101.464 33.4052C101.464 33.2072 101.424 33.0336 101.344 32.8844C101.267 32.7352 101.159 32.6208 101.02 32.5411C100.881 32.4613 100.723 32.4215 100.546 32.4215C100.368 32.4215 100.21 32.4613 100.071 32.5411C99.9324 32.6208 99.8231 32.7352 99.7433 32.8844C99.6662 33.0336 99.6276 33.2072 99.6276 33.4052C99.6276 33.6033 99.6662 33.7782 99.7433 33.9299C99.8231 34.0791 99.9324 34.1948 100.071 34.2771C100.21 34.3569 100.368 34.3967 100.546 34.3967ZM104.118 32.0704C104.404 32.0704 104.653 32.1257 104.866 32.2363C105.083 32.3443 105.248 32.5012 105.364 32.707C105.482 32.9101 105.542 33.148 105.542 33.4207C105.542 33.6933 105.482 33.9299 105.364 34.1305C105.248 34.3312 105.083 34.4855 104.866 34.5935C104.653 34.6989 104.404 34.7517 104.118 34.7517H103.242V32.0704H104.118ZM104.118 34.3929C104.432 34.3929 104.672 34.308 104.839 34.1383C105.007 33.9685 105.09 33.7293 105.09 33.4207C105.09 33.1095 105.007 32.8664 104.839 32.6915C104.672 32.5166 104.432 32.4292 104.118 32.4292H103.682V34.3929H104.118ZM106.363 32.4253V33.2123H107.289V33.5711H106.363V34.3929H107.405V34.7517H105.924V32.0665H107.405V32.4253H106.363ZM51.7081 37.0704V37.4292H50.9944V39.7517H50.5546V37.4292H49.837V37.0704H51.7081ZM52.5354 37.0704V38.7795C52.5354 38.9827 52.5882 39.1357 52.6936 39.2386C52.8016 39.3414 52.9508 39.3929 53.1411 39.3929C53.334 39.3929 53.4832 39.3414 53.5887 39.2386C53.6967 39.1357 53.7507 38.9827 53.7507 38.7795V37.0704H54.1905V38.7718C54.1905 38.9904 54.1429 39.1755 54.0478 39.3273C53.9526 39.479 53.8253 39.5922 53.6658 39.6668C53.5064 39.7414 53.3302 39.7787 53.1373 39.7787C52.9444 39.7787 52.7682 39.7414 52.6087 39.6668C52.4519 39.5922 52.3271 39.479 52.2345 39.3273C52.1419 39.1755 52.0956 38.9904 52.0956 38.7718V37.0704H52.5354ZM56.4413 37.0704V37.4292H55.7276V39.7517H55.2878V37.4292H54.5702V37.0704H56.4413ZM58.0557 39.7787C57.8062 39.7787 57.5761 39.7208 57.3651 39.6051C57.1568 39.4868 56.9909 39.3234 56.8675 39.1151C56.7466 38.9042 56.6861 38.6676 56.6861 38.4052C56.6861 38.1429 56.7466 37.9076 56.8675 37.6992C56.9909 37.4909 57.1568 37.3289 57.3651 37.2131C57.5761 37.0948 57.8062 37.0357 58.0557 37.0357C58.3078 37.0357 58.538 37.0948 58.7463 37.2131C58.9572 37.3289 59.1231 37.4909 59.244 37.6992C59.3649 37.9076 59.4253 38.1429 59.4253 38.4052C59.4253 38.6676 59.3649 38.9042 59.244 39.1151C59.1231 39.3234 58.9572 39.4868 58.7463 39.6051C58.538 39.7208 58.3078 39.7787 58.0557 39.7787ZM58.0557 39.3967C58.2332 39.3967 58.3914 39.3569 58.5303 39.2771C58.6691 39.1948 58.7772 39.0791 58.8543 38.9299C58.9341 38.7782 58.9739 38.6033 58.9739 38.4052C58.9739 38.2072 58.9341 38.0336 58.8543 37.8844C58.7772 37.7352 58.6691 37.6208 58.5303 37.5411C58.3914 37.4613 58.2332 37.4215 58.0557 37.4215C57.8783 37.4215 57.7201 37.4613 57.5812 37.5411C57.4423 37.6208 57.333 37.7352 57.2533 37.8844C57.1761 38.0336 57.1375 38.2072 57.1375 38.4052C57.1375 38.6033 57.1761 38.7782 57.2533 38.9299C57.333 39.0791 57.4423 39.1948 57.5812 39.2771C57.7201 39.3569 57.8783 39.3967 58.0557 39.3967ZM61.1968 39.7517L60.5795 38.6792H60.2439V39.7517H59.8041V37.0704H60.73C60.9357 37.0704 61.1093 37.1064 61.2508 37.1784C61.3948 37.2504 61.5016 37.3469 61.571 37.4678C61.643 37.5886 61.679 37.7237 61.679 37.8728C61.679 38.0477 61.6276 38.2072 61.5247 38.3512C61.4244 38.4927 61.2688 38.5891 61.0579 38.6406L61.7215 39.7517H61.1968ZM60.2439 38.3281H60.73C60.8946 38.3281 61.018 38.2869 61.1003 38.2046C61.1852 38.1223 61.2277 38.0117 61.2277 37.8728C61.2277 37.734 61.1865 37.6259 61.1042 37.5488C61.0219 37.469 60.8972 37.4292 60.73 37.4292H60.2439V38.3281ZM62.6275 37.0704V39.7517H62.1877V37.0704H62.6275ZM64.7674 39.2038H63.6447L63.4518 39.7517H62.9927L63.9533 37.0665H64.4626L65.4232 39.7517H64.9603L64.7674 39.2038ZM64.6439 38.8451L64.208 37.5989L63.7681 38.8451H64.6439ZM66.6704 39.7787C66.4903 39.7787 66.3283 39.7478 66.1843 39.6861C66.0402 39.6218 65.9271 39.5318 65.8448 39.416C65.7624 39.3003 65.7213 39.1653 65.7213 39.0109H66.192C66.2023 39.1267 66.2473 39.2218 66.327 39.2964C66.4093 39.371 66.5238 39.4083 66.6704 39.4083C66.8221 39.4083 66.9404 39.3723 67.0253 39.3003C67.1102 39.2257 67.1526 39.1305 67.1526 39.0148C67.1526 38.9248 67.1256 38.8515 67.0716 38.7949C67.0201 38.7383 66.9546 38.6946 66.8748 38.6637C66.7977 38.6329 66.6896 38.5994 66.5508 38.5634C66.3759 38.5171 66.2331 38.4708 66.1225 38.4245C66.0145 38.3757 65.9219 38.3011 65.8448 38.2008C65.7676 38.1005 65.729 37.9667 65.729 37.7995C65.729 37.6452 65.7676 37.5102 65.8448 37.3945C65.9219 37.2787 66.0299 37.19 66.1688 37.1283C66.3077 37.0665 66.4685 37.0357 66.6511 37.0357C66.9108 37.0357 67.123 37.1013 67.2876 37.2324C67.4548 37.361 67.5474 37.5385 67.5654 37.7648H67.0793C67.0716 37.6671 67.0253 37.5835 66.9404 37.5141C66.8555 37.4446 66.7437 37.4099 66.6048 37.4099C66.4787 37.4099 66.3759 37.442 66.2961 37.5063C66.2164 37.5706 66.1765 37.6632 66.1765 37.7841C66.1765 37.8664 66.201 37.9346 66.2498 37.9886C66.3013 38.04 66.3656 38.0812 66.4427 38.112C66.5199 38.1429 66.6253 38.1763 66.7591 38.2123C66.9366 38.2612 67.0806 38.3101 67.1912 38.3589C67.3043 38.4078 67.3995 38.4837 67.4767 38.5866C67.5564 38.6869 67.5963 38.8219 67.5963 38.9917C67.5963 39.128 67.559 39.2566 67.4844 39.3774C67.4124 39.4983 67.3056 39.5961 67.1642 39.6707C67.0253 39.7427 66.8607 39.7787 66.6704 39.7787Z" fill="white"/>
<path d="M8.28125 13.9398H41.4056M8.28125 13.9398V15.7341M8.28125 13.9398C8.28125 12.8417 8.71748 11.4435 9.49399 10.667C10.2705 9.89048 11.3237 9.45424 12.4218 9.45424H37.265C38.3632 9.45424 39.4163 9.89048 40.1928 10.667C40.9693 11.4435 41.4056 12.4966 41.4056 13.5948V15.7341M16.5623 9.45424V13.9398" stroke="white" stroke-width="1.10414" stroke-linecap="round" stroke-linejoin="round"/>
<path d="M35.5584 12.7437L35.333 12.5182L36.2347 11.6165L35.333 10.7148L35.5584 10.4894L36.4602 11.3911L37.3619 10.4894L37.5873 10.7148L36.6856 11.6165L37.5873 12.5182L37.3619 12.7437L36.4602 11.842L35.5584 12.7437Z" fill="white"/>
<g clip-path="url(#clip0_347_550)">
<path d="M32.8484 13.0197C32.6893 13.0197 32.5398 12.9895 32.3998 12.9291C32.2599 12.8687 32.1382 12.7867 32.0347 12.6833C31.9311 12.5799 31.8492 12.4581 31.7889 12.3181C31.7285 12.1781 31.6983 12.0286 31.6982 11.8696C31.6982 11.7105 31.7284 11.561 31.7889 11.421C31.8494 11.281 31.9313 11.1593 32.0347 11.0558C32.138 10.9524 32.2597 10.8705 32.3998 10.81C32.5399 10.7496 32.6894 10.7194 32.8484 10.7194C33.0073 10.7194 33.1569 10.7496 33.297 10.81C33.437 10.8705 33.5588 10.9524 33.6621 11.0558C33.7655 11.1593 33.8475 11.281 33.908 11.421C33.9686 11.561 33.9988 11.7105 33.9985 11.8696C33.9983 12.0286 33.9681 12.1781 33.9079 12.3181C33.8477 12.4581 33.7658 12.5799 33.6621 12.6833C33.5585 12.7867 33.4367 12.8687 33.297 12.9292C33.1572 12.9897 33.0077 13.0199 32.8484 13.0197Z" fill="white"/>
</g>
<path d="M42.5039 27.0285C42.5039 27.3153 42.6178 27.5903 42.8206 27.793C43.0233 27.9958 43.2983 28.1097 43.585 28.1097C43.8718 28.1097 44.1468 27.9958 44.3495 27.793C44.5523 27.5903 44.6662 27.3153 44.6662 27.0285H42.5039ZM42.5039 19.4605V27.0285H44.6662V19.4605H42.5039Z" fill="white"/>
<path fill-rule="evenodd" clip-rule="evenodd" d="M13.5543 25.7783C13.4628 25.7374 13.3612 25.7182 13.259 25.7223C13.1569 25.7265 13.0576 25.754 12.9708 25.8021C12.8839 25.8503 12.8123 25.9175 12.7629 25.9973C12.7135 26.0772 12.6879 26.167 12.6885 26.2582V32.8602C12.6885 32.8602 12.6885 39.2595 24.6468 39.2595C36.6052 39.2595 36.6052 32.8602 36.6052 32.8602V26.2582C36.6054 26.1672 36.5795 26.0776 36.5299 25.9981C36.4803 25.9185 36.4087 25.8516 36.3219 25.8037C36.2351 25.7558 36.136 25.7285 36.0341 25.7244C35.9321 25.7204 35.8307 25.7396 35.7394 25.7804L25.7183 30.2493C25.386 30.3976 25.0196 30.4748 24.648 30.4748C24.2765 30.4748 23.91 30.3976 23.5778 30.2493L13.5543 25.7783Z" fill="white"/>
<path d="M3.59952 18.628L24.4413 11.1565C24.6519 11.0808 24.8841 11.0415 25.1197 11.0415C25.3552 11.0415 25.5875 11.0808 25.798 11.1565L46.6398 18.6258C46.8918 18.7159 47.1038 18.8545 47.2519 19.0261C47.4001 19.1978 47.4786 19.3956 47.4786 19.5975C47.4786 19.7993 47.4001 19.9972 47.2519 20.1688C47.1038 20.3405 46.8918 20.4791 46.6398 20.5691L25.798 28.0406C25.5875 28.1163 25.3552 28.1557 25.1197 28.1557C24.8841 28.1557 24.6519 28.1163 24.4413 28.0406L3.59952 20.5713C3.34754 20.4813 3.13557 20.3427 2.9874 20.171C2.83923 19.9994 2.76074 19.8015 2.76074 19.5997C2.76074 19.3978 2.83923 19.1999 2.9874 19.0283C3.13557 18.8567 3.34754 18.718 3.59952 18.628Z" fill="white"/>
<path d="M41.4975 29.8119L41.4975 37.975C41.5002 39.0732 41.0674 40.4724 40.2928 41.2508C39.5182 42.0292 38.4661 42.468 37.3679 42.4707L12.5248 42.5312C11.4266 42.5339 10.3724 42.1002 9.59403 41.3256C8.81563 40.551 8.37684 39.4989 8.37416 38.4008L8.33886 23.9089" stroke="white" stroke-width="1.10414" stroke-linecap="round" stroke-linejoin="round"/>
<defs>
<clipPath id="clip0_347_550">
<rect width="2.76036" height="2.76036" fill="white" transform="translate(31.4688 10.4894)"/>
</clipPath>
</defs>
</svg>
