<svg width="425" height="250" viewBox="0 0 425 250" fill="none" xmlns="http://www.w3.org/2000/svg">
<g clip-path="url(#clip0_568_3060)">
<path d="M0 241.561L55.4231 198.495L275.557 193.416L313.987 249.316H0V241.561Z" fill="#F2F2F2"/>
<path d="M294.731 237.967V239.457C294.731 239.839 294.657 240.216 294.513 240.569C294.369 240.921 294.158 241.241 293.892 241.511C293.626 241.781 293.31 241.995 292.962 242.141C292.615 242.287 292.242 242.362 291.866 242.362H208.202C206.618 242.362 208.202 239.154 208.202 239.154L207.257 218.147C207.221 217.349 207.459 216.563 207.929 215.921C208.399 215.28 209.073 214.823 209.837 214.628C214.493 213.436 217.7 215.349 217.7 215.349L269.527 214.014C270.6 213.959 271.677 214.011 272.741 214.167C274.622 214.42 276.433 215.057 278.066 216.038C279.698 217.019 281.118 218.325 282.24 219.877L294.15 236.252C294.522 236.748 294.727 237.352 294.735 237.975L294.731 237.967Z" fill="#D6D6E3"/>
<path d="M274.932 216.591H212.5L214.225 239.714L286.541 238.184L274.932 216.591Z" fill="#F2F2F2"/>
<path d="M142.299 226.319V233.84L68.6799 236.868C68.6799 236.868 51.8468 235.703 49.7818 225.216C49.6176 224.119 49.6384 223.003 49.8434 221.913C50.5872 217.496 54.3234 209.781 70.7938 206.217L91.0742 204.104H136.294C136.294 204.104 142.136 210.031 142.299 226.319Z" fill="#090814"/>
<path d="M61.0098 213.974L72.9198 219.943L85.5923 216.903L85.6539 195.96C84.8491 180.675 91.7994 150.079 95.235 136.215C96.5585 130.856 97.7159 125.455 98.7072 120.013L102.603 98.7334L108.946 43.4365H93.8521L84.9803 56.3225L61.0098 213.974Z" fill="#090814"/>
<path d="M163.827 160.554L123.407 203.762L118.65 204.105L57.9923 7.19686C56.9599 4.93606 56.3813 2.48965 56.2902 0L116.37 8.17559C119.213 8.56287 123.88 9.79637 124.752 12.5677L165.947 151.152C166.457 152.768 166.529 154.493 166.156 156.148C165.783 157.802 164.979 159.324 163.827 160.555L163.827 160.554Z" fill="#090814"/>
<path d="M162.22 155.097C161.761 155.888 161.192 156.607 160.53 157.233L119.394 196.197L63.2708 6.68837L117.164 12.1233C119.033 12.3123 120.805 13.0615 122.252 14.2753C123.7 15.4892 124.758 17.1127 125.292 18.9388L163.147 147.378C163.526 148.66 163.639 150.007 163.479 151.336C163.32 152.664 162.891 153.945 162.22 155.097Z" fill="#960076"/>
<path d="M281.683 209.068C280.072 209.93 278.414 210.697 276.715 211.363C272.28 213.132 265.522 215.161 259.227 214.384C248.644 213.081 242.312 216.593 242.312 216.593L239.939 198.74C239.939 198.74 247.744 196.412 250.916 195.831C253.295 195.366 261.876 191.358 265.994 189.388C267.372 188.736 268.23 188.308 268.23 188.308H276.146L281.683 209.068Z" fill="#ED9DA0"/>
<path d="M310.966 155.709V194.815L308.894 197.301L302.26 205.262L276.642 211.693C277.239 183.007 263.823 190.575 263.823 190.575C274.406 179.04 279.896 181.087 279.896 181.087C288.803 166.4 302.958 153.174 303.867 151.764C304.593 150.626 305.126 149.592 310.966 155.709Z" fill="#D6D6E3"/>
<path d="M374.772 109.971C374.772 109.971 370.897 115.624 365.589 122.824C353.238 139.583 333.146 164.722 336.204 146.482C336.305 145.887 336.383 145.29 336.452 144.69C335.7 145.202 333.973 144.755 332.091 143.848L331.962 143.787C331.034 143.326 330.138 142.801 329.281 142.214C329.184 142.154 329.093 142.089 329.001 142.023C326.912 140.548 325.241 138.821 325.328 137.629C326.811 111.448 332.819 123.933 334.511 126.838C334.606 127.042 334.737 127.226 334.896 127.383C334.823 127.178 334.74 126.964 334.648 126.74C332.848 122.616 330.834 118.591 328.614 114.682V114.636L328.27 114.012C326.121 110.125 323.793 106.061 321.7 102.495L321.135 101.536C317.83 95.912 328.614 91.0011 328.614 91.0011C328.614 91.0011 330.276 77.7892 342.934 69.326C353.494 62.2546 362.438 58.9915 359.578 70.8531C357.741 78.4782 358.278 85.0006 359.972 90.406C360.032 90.6063 360.096 90.8062 360.165 91.0017C360.505 92.0317 360.898 93.0432 361.341 94.0321C361.941 95.3949 362.628 96.7167 363.398 97.989C366.279 102.778 370.162 106.869 374.772 109.971Z" fill="#ED9DA0"/>
<path d="M370.419 67.0184C370.379 76.1138 367.232 84.9141 361.514 91.9221C355.796 98.9302 347.86 103.713 339.055 105.457C330.251 107.202 321.123 105.799 313.224 101.489C305.325 97.1789 299.142 90.227 295.728 81.816C292.314 73.405 291.879 64.0545 294.498 55.3552C297.116 46.6559 302.627 39.1452 310.091 34.1007C317.556 29.0562 326.513 26.7895 335.44 27.6863C344.367 28.5831 352.711 32.588 359.054 39.0196C362.671 42.7001 365.536 47.0675 367.486 51.8718C369.436 56.6761 370.433 61.8232 370.419 67.0184Z" fill="#ED9DA0"/>
<path opacity="0.1" d="M334.625 126.739C333.386 123.653 330.952 118.965 328.23 114.012L328.574 113.835L334.873 126.581C334.785 126.624 334.702 126.677 334.625 126.739H334.625Z" fill="black"/>
<path d="M414.04 155.545C417.547 168.796 410.771 204.845 410.771 204.845L405.825 249.377H318.193C318.193 249.377 319.772 236.342 319.772 234.331C319.772 232.321 317.995 229.318 318.193 227.113C318.391 224.909 319.149 226.508 318.193 222.7C317.237 218.893 316.815 208.455 313.661 204.847C310.507 201.24 305.337 187.99 306.914 176.776C308.492 165.562 304.339 150.497 304.339 150.497C304.339 150.497 310.67 131.239 312.847 129.833C315.023 128.427 325.106 116.393 325.106 116.393L328.568 114.638H328.852L335.03 126.838C335.03 126.838 343.533 123.66 343.331 122.529L344.762 118.018L363.302 98.7878H363.325L363.688 98.5411H363.651C363.486 98.5411 363.009 98.2432 362.095 96.0633C361.861 95.5096 361.599 94.839 361.31 94.0105C361.31 94.0105 368.867 90.9333 371.563 93.1864C371.738 93.3284 371.892 93.4945 372.022 93.6798C372.098 93.7832 372.164 93.8939 372.219 94.0105C374.001 97.7347 374.791 100.528 376.572 102.939C376.765 103.196 376.973 103.44 377.196 103.67C379.349 105.956 402.665 124.56 402.665 124.56C402.665 124.56 410.533 142.296 414.04 155.545Z" fill="#D6D6E3"/>
<path d="M243.538 199.101C243.538 199.101 218.373 191.717 216.591 203.053C214.81 214.388 226.881 220.906 234.594 220.705C242.307 220.505 245.673 213.08 245.673 213.08L243.538 199.101Z" fill="#ED9DA0"/>
<path d="M369.725 233.947C369.725 233.947 364.087 238.057 352.117 238.057C340.148 238.057 326.199 240.664 326.199 240.664C326.199 240.664 308.395 198.137 272.683 234.539C272.683 234.539 266.255 242.965 299.589 243.85C299.589 243.85 311.361 243.45 313.932 249.366H380.506L389.611 242.457L369.725 233.947Z" fill="#ED9DA0"/>
<path d="M236.866 163.267C236.866 163.267 234.42 157.432 231.518 163.267L229.948 208.541L233.397 219.202L236.846 209.714L236.866 163.267Z" fill="#090814"/>
<path opacity="0.1" d="M372.003 93.6917C368.55 94.8832 364.763 97.6777 363.647 98.5519C363.44 98.5519 362.729 98.0865 361.305 94.0224C361.301 94.0219 369.845 90.5444 372.003 93.6917Z" fill="black"/>
<path d="M381.796 125.017C381.796 125.017 358.449 143.372 362.209 162.431C365.969 181.49 377.637 196.586 381.796 212.158C385.954 227.73 378.843 224.719 364.399 233.243L380.524 249.392C380.524 249.392 405.227 251.862 416.282 246.846C427.336 241.83 424.734 229.328 424.734 229.328L423.542 206.959L408.306 147.581C408.306 147.581 408.701 122.107 381.796 125.017Z" fill="#D6D6E3"/>
<path d="M237.477 208.723C241.636 208.723 245.007 206.855 245.007 204.552C245.007 202.248 241.636 200.38 237.477 200.38C233.319 200.38 229.948 202.248 229.948 204.552C229.948 206.855 233.319 208.723 237.477 208.723Z" fill="#ED9DA0"/>
<path d="M380.809 110.311C380.809 110.311 379.673 125.739 363.611 126.175C341.889 126.764 331.826 127.946 331.826 127.946C331.826 127.946 357.973 57.0028 346.648 64.657C335.323 72.3112 305.121 40.2148 305.121 40.2148L296.21 57.1607C296.21 57.1607 274.919 49.346 298.515 30.2046C298.515 30.2046 326.667 8.13681 356.553 21.3886C386.44 34.6404 380.809 110.311 380.809 110.311Z" fill="#090814"/>
<path d="M221.774 219.234C222.337 219.214 222.885 219.422 223.297 219.811C223.709 220.201 223.952 220.74 223.972 221.311C224.026 222.898 222.329 223.88 222.35 225.302C222.489 234.663 223.386 235.879 222.351 235.915C221.788 235.935 221.24 235.728 220.828 235.338C220.416 234.949 220.173 234.409 220.153 233.838L222.35 231.076L219.726 221.462C219.706 220.891 219.911 220.336 220.295 219.918C220.679 219.5 221.211 219.254 221.774 219.234Z" fill="#090814"/>
<path d="M231.911 225.053C232.051 234.417 235.404 235.794 234.369 235.831C233.197 235.873 229.757 234.781 231.911 230.83L229.288 221.214C229.275 220.845 231.897 224.072 231.911 225.053Z" fill="#090814"/>
</g>
<defs>
<clipPath id="clip0_568_3060">
<rect width="425" height="250" fill="white"/>
</clipPath>
</defs>
</svg>
